<svg width="40" height="8" viewBox="0 0 40 8" fill="none" xmlns="http://www.w3.org/2000/svg">
<path d="M33.2544 7.04702L32.9544 6.67086C32.7549 6.86968 32.4903 7.08027 32.2229 7.08027C31.7352 7.08027 31.6583 6.59189 31.6583 6.06055V3.11364H32.9434V2.5165H31.6479V1.02018H31.1602C30.7723 1.89442 30.2735 2.42644 29.2871 2.5927V3.09147H29.9424V5.48558C29.9431 6.1042 29.9646 6.5143 30.0525 6.81356C30.2735 7.56796 30.8949 7.84436 31.6265 7.84436C32.2236 7.84367 32.7335 7.61021 33.2544 7.04702ZM28.1607 0.169494C27.4728 0.335059 26.284 0.456982 25.964 0.456982V1.05412C26.2196 1.05412 26.4739 1.04235 26.6844 1.02087V7.09135H25.9301V7.6878H29.2095V7.09135H28.4225V0.378702C28.4232 0.193048 28.311 0.15564 28.2584 0.15564C28.2283 0.156065 28.1983 0.159782 28.169 0.166723L28.1607 0.169494Z" fill="#3B4095"/>
<path d="M25.7548 4.86349C25.7548 3.47801 24.7462 2.43821 23.1847 2.4389C21.6676 2.4389 20.4914 3.50087 20.4921 5.08517C20.4921 6.71519 21.7889 7.84366 23.3836 7.84366C24.4365 7.84366 25.2221 7.2673 25.7333 6.49213L25.1895 6.05986C24.9692 6.45957 24.3132 7.11282 23.6607 7.11282C22.6077 7.11282 22.3542 6.20395 22.3535 5.21748V5.18493H25.5435C25.7333 5.18493 25.7555 5.15167 25.7548 4.86349ZM24.0271 4.29822C24.0271 4.38758 24.0153 4.47625 24.016 4.43192H22.3542C22.3542 4.05507 22.5204 2.97024 23.2519 2.97024C23.8713 2.97024 24.0271 3.50087 24.0271 4.29822Z" fill="#234B8D"/>
<path d="M39.2917 6.88005L38.8698 6.59187C38.7936 6.73665 38.6599 6.95764 38.4818 6.95764C38.2726 6.95764 38.2276 6.85719 38.2276 6.436V4.54344C38.2276 4.19915 38.2276 3.84446 38.1272 3.50086C37.8508 2.61416 36.8643 2.4382 36.0552 2.4382C35.4788 2.43889 34.8477 2.53865 34.3164 2.77072C33.8841 2.95914 33.4962 3.22446 33.4962 3.63387C33.4962 4.089 33.7955 4.24348 34.1176 4.24279C34.5048 4.24279 34.793 3.96708 34.793 3.71215C34.793 3.22446 34.9593 3.02426 35.6894 3.02426C36.3205 3.02426 36.5082 3.39002 36.5096 3.99964C36.5096 4.42013 36.4978 4.47624 36.3316 4.47624C35.7899 4.47624 34.9911 4.60994 34.4709 4.8524C33.8938 5.14058 33.3951 5.6061 33.3964 6.31616C33.3951 7.21118 34.094 7.84365 34.9911 7.84365C35.5993 7.84365 36.1653 7.5236 36.5754 7.10173C36.7632 7.61089 37.1726 7.84365 37.7157 7.84365C38.4368 7.84365 38.9584 7.5236 39.2917 6.88005ZM36.4881 6.48103C36.3662 6.64729 36.112 6.92438 35.7026 6.92438C35.2703 6.92438 34.9821 6.58009 34.9821 6.16098C34.9821 5.37334 35.7905 5.07338 36.4881 4.98679V6.48103ZM19.994 3.98855C19.994 1.76209 18.5095 0.433411 16.0398 0.433411C15.0755 0.433411 14.2228 0.477746 13.7794 0.477746L12.4085 0.477053V1.10675H13.3693V7.06847H12.3745V7.68848H16.1167C18.4097 7.68848 19.994 6.18246 19.994 3.98855ZM18.0439 3.93383C18.0439 5.8735 17.1351 7.06847 15.6623 7.06847H15.2418V1.11992C15.4732 1.07558 15.5625 1.07558 15.7517 1.07558C17.2466 1.07558 18.0439 1.9616 18.0439 3.93383ZM10.9461 7.4377C11.0518 7.43743 11.153 7.3952 11.2275 7.3203C11.302 7.24541 11.3437 7.14398 11.3434 7.03834C11.3431 6.9327 11.3009 6.83149 11.226 6.75699C11.1511 6.68248 11.0497 6.64078 10.944 6.64105C10.8384 6.64133 10.7372 6.68356 10.6627 6.75845C10.5882 6.83335 10.5465 6.93478 10.5468 7.04042C10.547 7.14606 10.5893 7.24727 10.6642 7.32177C10.7391 7.39628 10.8405 7.43798 10.9461 7.4377ZM10.9461 7.3622C10.9038 7.36229 10.8619 7.35404 10.8228 7.33794C10.7837 7.32184 10.7481 7.29818 10.7181 7.26834C10.6882 7.23849 10.6644 7.20303 10.6481 7.16398C10.6318 7.12494 10.6234 7.08307 10.6233 7.04076C10.6232 6.99846 10.6315 6.95656 10.6476 6.91744C10.6637 6.87832 10.6873 6.84276 10.7172 6.81279C10.747 6.78281 10.7825 6.75901 10.8215 6.74273C10.8606 6.72646 10.9024 6.71804 10.9447 6.71795C11.0302 6.71776 11.1122 6.75153 11.1727 6.81181C11.2333 6.87209 11.2674 6.95395 11.2675 7.03938C11.2677 7.12481 11.234 7.20682 11.1737 7.26736C11.1134 7.3279 11.0316 7.36201 10.9461 7.3622ZM11.0403 7.0754C11.1165 7.06986 11.1574 7.0373 11.1574 6.95902C11.1574 6.91399 11.1456 6.87174 11.1061 6.8468C11.0743 6.8274 11.0258 6.8274 10.9905 6.8274H10.7833V7.25482L10.8658 7.25551V7.0754H10.951L11.0466 7.25551L11.1449 7.25482L11.0403 7.0754ZM10.8658 7.01028V6.88836L10.9704 6.88905C11.0126 6.88905 11.0736 6.88836 11.0736 6.94586C11.0736 6.99989 11.0396 7.01167 10.9918 7.01098H10.8658V7.01028Z" fill="#3B4095"/>
<path d="M10.3635 7.62689C10.3649 7.60265 10.3503 7.57909 10.3102 7.56316C8.94131 6.97087 7.24341 6.42499 5.54619 6.42499H5.52472C3.82751 6.42499 2.13029 6.97087 0.762824 7.56247C0.723338 7.57909 0.70879 7.60265 0.70879 7.62689C0.705326 7.66014 0.733036 7.68993 0.761438 7.68993H10.3088C10.3372 7.68993 10.367 7.66084 10.3635 7.62689Z" fill="#B01842"/>
<path d="M5.5351 5.44954C4.01454 5.45161 2.5293 6.0924 0.960938 6.92438L0.875731 6.96802C0.862313 6.97524 0.847325 6.97905 0.832088 6.97911C0.806728 6.97856 0.782591 6.9681 0.76485 6.94998C0.747109 6.93185 0.737177 6.90749 0.737183 6.88212C0.737231 6.86232 0.743805 6.84308 0.755887 6.82739L0.799529 6.76228C1.22141 6.1402 4.60891 1.46974 5.37438 0.349584C5.42426 0.273382 5.47345 0.241516 5.5351 0.241516C5.59675 0.241516 5.64594 0.273382 5.69789 0.349584C6.46129 1.46974 9.84879 6.1402 10.2721 6.76228L10.3171 6.8267C10.3289 6.84248 10.3352 6.86171 10.3351 6.88143C10.335 6.8978 10.3307 6.91387 10.3227 6.92814C10.3147 6.94242 10.3032 6.95444 10.2893 6.96309C10.2754 6.97173 10.2596 6.97672 10.2432 6.97758C10.2269 6.97844 10.2106 6.97515 10.1959 6.96802L10.11 6.92369C8.5409 6.0924 7.05774 5.44815 5.5351 5.44954Z" fill="#3B4095"/>
</svg>
