<svg width="36" height="18" viewBox="0 0 36 18" fill="none" xmlns="http://www.w3.org/2000/svg">
<path d="M3.1351 14.7083H0.782593V12.3519H3.1351V14.7083ZM3.1351 11.4612H0.782593V0.256592H3.1351V11.4612Z" fill="#2E3192"/>
<path d="M4.24414 4.51121H6.58639V5.48446H6.6245C7.16707 4.91868 7.87209 4.34851 8.74322 4.34851C9.8523 4.34851 10.3773 5.11851 10.3773 6.45575V14.7086H8.03503V7.30759C8.03503 6.53857 7.77339 6.29379 7.37154 6.29379C7.04883 6.29379 6.7464 6.4775 6.58639 6.68294V14.7083H4.24414V4.51121Z" fill="#2E3192"/>
<path d="M15.4517 14.7066H17.6902V0.256592H15.3501V5.07618H15.3074C15.0284 4.69289 14.5181 4.3482 13.826 4.3482C12.1125 4.3482 11.3254 6.21409 11.3254 9.58455C11.3254 12.9157 11.9337 14.8671 13.6252 14.8671C14.5591 14.8671 14.9441 14.4193 15.4117 13.8889H15.452V14.7066H15.4517ZM15.3501 12.8321C15.226 13.0163 14.982 13.1588 14.6383 13.1588C13.9513 13.1588 13.826 12.6953 13.826 9.56476C13.826 6.35651 14.0114 5.9312 14.6991 5.9312C15.0027 5.9312 15.247 6.07386 15.3504 6.2561V12.8321H15.3501Z" fill="#2E3192"/>
<path d="M18.8934 0.256592H21.2325V2.59713H18.8934V0.256592ZM18.8934 4.51114H21.2325V14.7083H18.8934V4.51114Z" fill="#2E3192"/>
<path d="M24.1931 7.62435C24.1931 6.35111 24.4775 5.79902 25.0415 5.79902C25.5946 5.79902 25.8746 6.35087 25.8746 7.62435C25.8746 8.87316 25.5946 9.42769 25.0415 9.42769C24.4772 9.42769 24.1931 8.87316 24.1931 7.62435ZM28.712 3.29187C27.8223 3.39374 27.0086 4.02205 26.6284 4.83114C26.0358 4.40901 25.5113 4.34818 25.0413 4.34818C23.1786 4.34818 22.0834 5.88085 22.0834 7.51979C22.0834 8.68994 22.3246 9.69128 23.3225 10.3736C22.5703 10.8187 21.9813 11.3678 21.9813 12.3208C21.9813 13.1573 22.6507 13.6656 23.3831 13.8679V13.9116C22.4912 14.2573 21.5768 14.6565 21.5768 15.7765C21.5768 16.4276 22.3473 17.7436 25.0413 17.7436C27.7834 17.7436 28.712 16.3022 28.712 14.8573C28.712 11.4282 23.9312 12.486 23.9312 11.2433C23.9312 11.0407 23.9691 10.88 24.1535 10.7786C24.4144 10.8573 24.6976 10.88 24.9819 10.88C26.8268 10.88 27.9786 9.34781 27.9786 7.58184C27.9786 6.74173 27.7837 6.1078 27.2941 5.49903C27.4969 5.33511 27.8018 5.23495 28.004 5.23495C28.1663 5.23495 28.4875 5.27477 28.7122 5.35734V3.29187H28.712ZM26.7672 15.1753C26.7672 15.7973 26.1777 16.1588 25.1261 16.1588C23.8882 16.1588 23.5233 15.8572 23.5233 15.3564C23.5233 14.6364 24.6219 14.3357 24.9819 14.2746C25.2318 14.2944 26.7672 14.5346 26.7672 15.1753Z" fill="#2E3192"/>
<path d="M35.2173 9.6088C35.2173 5.75611 33.8022 4.35071 31.9871 4.35071C30.1681 4.35071 28.7546 5.75611 28.7546 9.6088C28.7546 13.4661 30.1683 14.871 31.9871 14.871C33.8022 14.871 35.2173 13.4661 35.2173 9.6088ZM32.7163 9.6088C32.7163 12.7108 32.5316 13.1588 31.9873 13.1588C31.4408 13.1588 31.2554 12.7108 31.2554 9.6088C31.2554 6.50559 31.4408 6.06122 31.9873 6.06122C32.5314 6.06098 32.7163 6.50559 32.7163 9.6088Z" fill="#2E3192"/>
</svg>
