<svg width="40" height="12" viewBox="0 0 40 12" fill="none" xmlns="http://www.w3.org/2000/svg">
<path d="M25.5226 4.39325C25.5226 4.9118 25.6219 5.08835 25.9801 5.08063V5.24072C25.9801 5.24072 25.9593 5.23804 25.3783 5.23804C25.0329 5.23804 24.1022 5.32765 23.8965 5.32698C22.2908 5.32329 21.9934 4.40969 21.9934 3.64445C21.9934 2.68185 22.6157 1.95856 23.5434 1.95856C24.0602 1.95856 24.2435 2.10456 24.4472 2.32809V1.58332C24.4187 1.35207 24.5023 1.01241 23.9562 0.998983V0.859359L25.3763 0.768738H25.5226V4.39325ZM24.4472 2.73958C24.265 2.39556 24.0602 2.18075 23.7068 2.18075C23.2047 2.18075 23.0701 2.81208 23.0701 3.58706C23.0701 4.73056 23.3792 5.13768 23.8615 5.13768C24.3992 5.13768 24.4472 4.82689 24.4472 4.34391V2.73958Z" fill="#275DA6"/>
<path d="M19.9165 1.96564C21.1878 1.96866 21.5742 2.90105 21.6034 3.43337L19.3288 3.42901C19.2986 4.07812 19.6432 4.80007 20.435 4.80175C20.9589 4.80275 21.2358 4.45034 21.3674 4.21741L21.5493 4.303C21.351 4.77691 20.8327 5.3391 19.8956 5.33473C19.0686 5.33104 18.2346 4.77221 18.2369 3.64918C18.2386 2.49863 19.1677 1.96363 19.9165 1.96564ZM19.9306 2.22374C19.4677 2.22374 19.3328 2.72518 19.3294 3.10411C19.3294 3.10411 20.5075 3.10512 20.5058 3.10411C20.531 2.75472 20.3904 2.22374 19.9306 2.22374ZM20.966 8.27891C20.5031 8.27824 20.3682 8.78002 20.3645 9.15861C20.3645 9.15861 21.5426 9.15995 21.5406 9.15861C21.5661 8.81022 21.4255 8.27891 20.966 8.27891ZM20.9485 8.02014C22.2196 8.02081 22.6079 8.95287 22.6378 9.48485H20.3635C20.3347 10.1343 20.6804 10.8559 21.4725 10.8559C21.996 10.8559 22.2726 10.5022 22.4035 10.2692L22.5854 10.3545C22.3884 10.8287 21.8712 11.3923 20.9341 11.3899C20.1071 11.3876 19.272 10.8307 19.272 9.70704C19.272 8.55648 20.1997 8.01947 20.9485 8.02014Z" fill="#275DA6"/>
<path d="M14.8333 8.22448C15.1307 8.21408 16.3329 8.10231 16.3329 8.10231L16.3393 8.59502C16.7373 8.31947 17.1609 8.02545 17.662 8.11741C18.4031 8.25368 18.5467 8.85916 18.5454 9.26595C18.5454 9.26595 18.5447 10.5065 18.5454 10.6608C18.5467 10.8485 18.633 11.1035 18.969 11.1039C18.9683 11.1035 18.9693 11.2589 18.9693 11.2589H17.0542V11.1029C17.2311 11.1035 17.4871 11.0381 17.4885 10.6374C17.4888 10.4118 17.4878 9.57541 17.4885 9.2824C17.4888 8.98939 17.3593 8.80211 17.1542 8.72189C16.8431 8.59972 16.5413 8.77861 16.3426 8.98066L16.343 10.6327C16.343 10.8206 16.394 11.1035 16.7649 11.1032L16.7639 11.26H14.8692C14.8692 11.26 14.8699 11.1526 14.8692 11.1032C15.0817 11.1035 15.2921 10.9978 15.2931 10.6202C15.2931 10.6202 15.2924 9.05954 15.2931 8.86051C15.2941 8.5138 15.2109 8.36578 14.8336 8.3688C14.8333 8.37216 14.8333 8.22482 14.8333 8.22448ZM4.85724 11.0982C4.35211 11.1099 4.28532 10.5457 4.13529 10.201L2.92936 6.98767L2.13693 6.98566L0.792716 10.442C0.689341 10.6622 0.586302 10.9106 0.356057 11.0468C0.299335 11.1324 0.0583496 11.1089 0.0583496 11.1089L0.059356 11.2526L1.58515 11.2553L1.58347 11.114C1.43646 11.1153 1.28912 11.0884 1.20353 10.9404C1.10183 10.5528 1.31631 10.1903 1.44653 9.84257H2.80686L3.07973 10.5917C3.10188 10.7192 3.14517 10.874 3.04784 10.9733C2.94379 11.1019 2.78974 11.0898 2.64944 11.119L2.65079 11.2492L4.80656 11.2549M1.57642 9.48076L2.13861 8.00531L2.67025 9.48076H1.57642ZM7.17043 11.1072C7.17043 11.1072 7.36745 11.1153 7.42014 11.0559C7.57386 10.9841 7.61649 10.83 7.63629 10.6813L7.63797 8.61482C7.53728 8.32484 7.34261 8.33491 7.18117 8.31477C7.1946 8.27214 7.18755 8.22347 7.18721 8.18051L8.67474 8.10768L8.67306 8.95214C8.96439 8.58932 9.2772 7.92174 9.86792 8.10735L10.079 8.19025C10.026 8.53729 9.93773 8.90582 9.86389 9.25991C9.59606 9.08538 9.26412 8.82694 8.93654 9.04913C8.82343 9.1333 8.73197 9.24317 8.66971 9.36967L8.67105 10.6652C8.68213 10.8418 8.74858 10.9931 8.87679 11.0552C8.99158 11.1109 9.1255 11.1039 9.1255 11.1039L9.11778 11.2526L7.16741 11.2489L7.17043 11.1072Z" fill="#275DA6"/>
<path d="M4.86428 11.0982C5.17675 11.0976 5.27375 10.9224 5.27375 10.4968C5.27308 10.4917 5.27375 8.83002 5.27375 8.83002C5.27275 8.75954 5.28617 8.53802 5.16434 8.4276C5.07304 8.34503 4.93778 8.32154 4.81796 8.31986V8.17419L6.31053 8.10304C6.31053 8.10304 6.3112 10.5072 6.31053 10.5015C6.30952 11.0627 6.54983 11.0969 6.75323 11.0969V11.255H4.8136M10.0716 11.1003C10.2636 11.0952 10.5566 11.0529 10.5566 10.5894C10.5566 10.4629 10.5576 7.90636 10.5566 7.52105C10.556 7.22032 10.4653 7.04344 10.071 7.07365V6.91725L11.631 6.79105C11.631 6.79105 11.6273 9.85505 11.631 10.5837C11.6337 11.022 11.8324 11.1039 12.0948 11.1029C12.0935 11.1039 12.0948 11.2593 12.0948 11.2593H10.0716C10.0716 11.2593 10.0696 11.0996 10.0716 11.1003ZM12.4815 11.0976C12.794 11.0972 12.9202 10.9237 12.9198 10.5008V8.84613C12.9195 8.77632 12.9326 8.55682 12.8104 8.4474C12.7195 8.36584 12.5839 8.34201 12.464 8.34033V8.19601L13.9576 8.12586C13.9576 8.12586 13.9583 10.0527 13.9576 10.5055C13.9563 11.063 14.1973 11.0972 14.4003 11.0969V11.2536L12.4815 11.254V11.0976ZM13.4062 7.75902C13.7287 7.75902 13.9898 7.50561 13.9898 7.1928C13.9898 6.88033 13.7287 6.62726 13.4062 6.62726C13.084 6.62726 12.8228 6.88033 12.8228 7.1928C12.8228 7.50528 13.084 7.75902 13.4062 7.75902Z" fill="#275DA6"/>
<path d="M5.77288 7.75901C6.09475 7.75901 6.35587 7.50561 6.35587 7.1928C6.35587 6.88033 6.09475 6.62726 5.77288 6.62726C5.45067 6.62726 5.18921 6.88033 5.18921 7.1928C5.18954 7.50528 5.45067 7.75901 5.77288 7.75901ZM23.2138 10.147C23.4541 10.0672 23.3715 10.3796 23.5001 10.4706C23.7655 10.8586 24.1723 11.2093 24.6674 11.0986C24.7805 11.0476 24.9141 10.9757 24.9701 10.8549C24.9989 10.7724 25.0037 10.6835 24.9841 10.5984C24.9646 10.5133 24.9213 10.4355 24.8594 10.3739C24.3173 9.96077 23.3118 10.0262 23.2332 9.13344C23.2091 8.79344 23.348 8.50211 23.6085 8.29435C24.0867 7.92817 24.86 8.02081 25.3934 8.20071C25.5635 8.24837 25.6038 8.0141 25.7673 8.06276L25.8042 9.04047L25.6625 9.04919C25.532 8.71658 25.2034 8.37255 24.855 8.26884C24.6848 8.22085 24.4583 8.23696 24.3026 8.30912C24.1972 8.37457 24.1062 8.48096 24.1069 8.60851C24.1012 8.75786 24.1804 8.8844 24.3083 8.96159C24.9272 9.21802 25.9344 9.35126 25.9636 10.2508C25.9807 10.5834 25.8344 10.8616 25.5813 11.069C25.0819 11.5272 24.2304 11.3714 23.6548 11.1855C23.5558 11.1721 23.4638 11.2154 23.4222 11.308V11.3292L23.2879 11.3375C23.2485 10.9418 23.2238 10.5447 23.2138 10.147Z" fill="#275DA6"/>
<path d="M38.7063 0.828148V11.2311H36.5512C37.0063 10.0359 37.109 8.55813 36.7878 7.26225C36.3985 5.61563 35.3207 4.05057 33.7933 3.08461C32.3507 2.16598 30.5182 1.80417 28.7161 2.17639L28.3016 2.27708V0.828148H38.7063V0.828148ZM31.1656 2.45966C30.6128 2.15424 29.8845 2.11027 29.2317 2.22103L29.4626 2.24721L29.4955 2.23177C29.7979 2.20962 30.1157 2.21969 30.3977 2.28111C30.3054 2.30695 30.1473 2.35965 30.0358 2.40596C30.0979 2.42912 30.1782 2.46973 30.2335 2.50464C30.3957 2.45082 30.5606 2.40555 30.7276 2.36904C30.8363 2.40261 31.1179 2.53183 31.2928 2.66037C31.086 2.68185 30.8038 2.72247 30.5769 2.77482C30.6302 2.82248 30.6766 2.87753 30.7158 2.93928C30.9869 2.89106 31.261 2.86146 31.5361 2.85068C31.6774 2.97285 31.7922 3.11952 31.8708 3.27156C31.5653 3.25042 31.1579 3.25612 30.9092 3.28264C30.934 3.32795 30.9699 3.44106 30.9854 3.5102C31.2941 3.49677 31.7993 3.51892 32.0104 3.5498C32.0799 3.71728 32.1201 3.89651 32.1359 4.08547C31.7818 4.01533 31.3663 3.95693 31.0414 3.94149C31.0451 4.04587 31.0407 4.14589 31.0313 4.24423C31.4176 4.28383 31.7926 4.35365 32.1557 4.44796C32.1513 4.63256 32.1245 4.8618 32.0748 5.03901C31.703 4.9088 31.3231 4.80252 30.9377 4.72083C30.899 4.88157 30.8457 5.03841 30.7783 5.18937C31.1589 5.31624 31.5351 5.48205 31.8956 5.66027C31.8351 5.83457 31.7598 6.00334 31.6704 6.16473C31.3096 5.96301 30.9387 5.76432 30.5708 5.60757C30.4558 5.81549 30.3267 6.01532 30.1845 6.20567C30.5406 6.42467 30.8858 6.66079 31.219 6.91319C31.1176 7.06053 30.9736 7.23808 30.8853 7.34414C30.5635 7.07597 29.9016 6.54836 29.9016 6.54836C29.7052 6.78397 29.5391 6.95917 29.2934 7.14813C29.5899 7.45351 29.8735 7.77107 30.1436 8.09999C30.0345 8.21513 29.9134 8.3183 29.7824 8.40777C29.5129 8.07668 29.2514 7.73916 28.9981 7.3955C28.7332 7.60325 28.5715 7.71603 28.3016 7.85632V8.24465L28.7316 9.10555C28.6358 9.16591 28.5349 9.21747 28.4298 9.25961L28.3016 9.00922V9.46166C29.9607 8.72427 31.6479 7.10014 32.1393 5.33504C32.3188 4.72586 32.351 3.94048 32.057 3.37225C31.8845 2.99869 31.5351 2.64997 31.1656 2.45966M30.9186 2.20391C30.9907 2.22707 31.0599 2.25963 31.1287 2.28983L31.1676 2.28312C31.5166 2.34045 31.8535 2.45619 32.1641 2.62547C31.9993 2.62647 31.8285 2.62412 31.664 2.63721C31.7331 2.69964 31.8056 2.77147 31.8657 2.83692C32.0825 2.83257 32.2994 2.83738 32.5158 2.85135C32.7263 3.00608 32.9411 3.21383 33.0609 3.4273C32.7682 3.36503 32.4718 3.32142 32.1735 3.29674C32.2131 3.38668 32.2524 3.47966 32.2859 3.57498C32.6216 3.62431 32.9549 3.6854 33.2787 3.76763C33.3848 3.98881 33.4667 4.22241 33.5009 4.4681C33.1442 4.34056 32.7776 4.22006 32.4027 4.14387C32.4125 4.2637 32.4128 4.38956 32.4138 4.5124C32.8011 4.62484 33.1791 4.75439 33.5456 4.92053C33.5484 5.15979 33.5214 5.39846 33.4653 5.63107C33.0958 5.44714 32.7206 5.26623 32.3299 5.13332C32.2803 5.35021 32.2164 5.56358 32.1386 5.77204C32.5138 5.9657 32.8867 6.16137 33.2415 6.39296C33.1691 6.59663 33.0757 6.79223 32.9629 6.97663C32.6142 6.73866 32.2655 6.50674 31.9016 6.30401C31.7735 6.57336 31.6172 6.8284 31.4354 7.0649C31.76 7.32132 32.0913 7.58614 32.4044 7.86941C32.2867 8.04572 32.1543 8.21178 32.0087 8.36581C31.7801 8.1255 31.4002 7.7845 31.084 7.51632C30.8598 7.78785 30.5943 8.0869 30.3275 8.30943C30.5309 8.52323 31.1354 9.25189 31.1354 9.25189C31.0142 9.37238 30.8642 9.49589 30.7085 9.60766C30.7085 9.60766 30.0926 8.8159 29.9395 8.62593C29.575 8.91525 29.2823 9.11797 28.8558 9.34452C29.0263 9.63317 29.4455 10.4142 29.4455 10.4142C29.3377 10.4806 29.2239 10.5427 29.1108 10.584C28.9135 10.2548 28.6752 9.77749 28.5476 9.50496C28.4251 9.57242 28.3016 9.61571 28.3016 9.61571V11.0391C29.5881 10.6219 30.7729 9.88288 31.7771 8.81355C32.6917 7.82276 33.4143 6.75242 33.6295 5.47399C33.8006 4.454 33.463 3.49442 32.6538 2.84464C32.1631 2.42509 31.5543 2.27809 30.9186 2.20391M30.4906 2.88357C29.9271 2.31299 29.0622 2.266 28.3016 2.44523V2.51437C28.4835 2.47354 28.6691 2.45139 28.8554 2.44825C28.7333 2.52444 28.6166 2.60912 28.5064 2.70166C28.5523 2.71172 28.6013 2.72683 28.6443 2.74562C28.7974 2.63546 28.9566 2.53383 29.1209 2.4412C29.3005 2.44188 29.5334 2.47577 29.6858 2.53652C29.4354 2.62681 29.1316 2.76576 28.9356 2.89699C28.9735 2.9186 29.0079 2.94575 29.0377 2.97755C29.3173 2.8317 29.6084 2.7089 29.908 2.61036C30.0419 2.66373 30.1859 2.75939 30.2688 2.83927C29.9066 2.92485 29.5592 3.02051 29.2098 3.16282C29.2444 3.20209 29.2797 3.2625 29.2971 3.29976C29.6689 3.1721 30.0486 3.06906 30.4339 2.99131C30.5047 3.06716 30.589 3.189 30.6333 3.30177C30.2053 3.34674 29.7146 3.42126 29.3854 3.51523C29.4052 3.57128 29.4176 3.62499 29.428 3.67667C29.8538 3.59381 30.2852 3.54254 30.7185 3.52329C30.7588 3.64881 30.7799 3.78374 30.7806 3.92135C30.3361 3.89699 29.8904 3.90754 29.4475 3.9529C29.4478 4.00492 29.4408 4.10763 29.4337 4.17173C29.8788 4.15539 30.3244 4.17098 30.7672 4.21839C30.7507 4.34828 30.7185 4.5171 30.6766 4.66243C30.2275 4.56006 29.818 4.51039 29.3666 4.48085C29.3446 4.57924 29.3118 4.67491 29.2689 4.76614C29.6922 4.84367 30.1154 4.96081 30.5232 5.10681C30.4668 5.23938 30.4017 5.3686 30.3305 5.49447C30.0248 5.34981 29.4827 5.14809 29.1266 5.04807C29.0559 5.19024 28.9703 5.32447 28.8712 5.44848C29.1273 5.573 29.618 5.8499 29.9529 6.06605C29.8727 6.17412 29.7831 6.28556 29.6881 6.3849C29.3661 6.12978 29.0318 5.89063 28.6863 5.66832C28.5735 5.79721 28.4329 5.9375 28.3016 6.04927V6.08954L29.1129 6.95447C29.0244 7.03484 28.9316 7.11035 28.8349 7.18069L28.3016 6.49868V7.70327C29.1259 7.21895 29.961 6.42585 30.4299 5.58374C30.8128 4.91046 31.1018 3.99787 30.7319 3.22357C30.6655 3.10408 30.596 2.98728 30.4906 2.88357M32.9149 2.89129L33.1546 2.92015C33.3949 3.04467 33.6144 3.22021 33.8131 3.42931C33.8859 3.50986 33.9641 3.59008 34.0155 3.67667C33.8174 3.62096 33.6251 3.55316 33.421 3.50919C33.4902 3.61693 33.5399 3.72299 33.5909 3.84717C33.8188 3.91162 34.0443 3.9915 34.2662 4.07104C34.4081 4.33989 34.5119 4.63054 34.5609 4.93597C34.3061 4.80843 34.0507 4.68391 33.7862 4.5802C33.8067 4.72989 33.8131 4.88428 33.8067 5.03263C34.0953 5.16554 34.4192 5.34343 34.6196 5.47131C34.6263 5.68343 34.6065 6.05934 34.5444 6.29999C34.3138 6.13116 33.9806 5.91502 33.7117 5.7764C33.6748 5.98382 33.5771 6.30771 33.4731 6.53594C33.7557 6.72624 34.0349 6.92192 34.3028 7.15149C34.2182 7.37538 34.1183 7.59316 34.0037 7.80329C33.7369 7.57446 33.463 7.35406 33.1824 7.14243C33.023 7.46265 32.8287 7.76431 32.6031 8.04193C32.8733 8.28884 33.1364 8.54336 33.3922 8.80516C33.2653 8.98976 33.1233 9.17201 32.9572 9.34385C32.7102 9.0787 32.4571 8.80684 32.1983 8.55377C31.9302 8.86356 31.6274 9.18745 31.3099 9.45428C31.5585 9.72238 31.7892 10.0065 32.0006 10.3048C31.8432 10.4394 31.6962 10.5672 31.5381 10.682L30.8716 9.82246C30.4597 10.1423 30.0234 10.4078 29.5844 10.6471L29.9348 11.2311H31.0196C32.6766 10.0984 34.1749 8.4175 34.6357 6.54097C34.9146 5.3921 34.6498 4.21771 33.858 3.36252C33.4365 2.9074 32.9679 2.75435 32.6377 2.65299C32.7219 2.7087 32.8199 2.79429 32.9149 2.89129M28.302 2.79597V2.99634L28.4144 2.9178C28.5074 2.94063 28.6141 2.98661 28.6849 3.03393C28.556 3.10945 28.4231 3.18497 28.303 3.26619V3.39239C28.4647 3.29064 28.63 3.19481 28.7987 3.10509C28.8591 3.14335 28.9135 3.20007 28.9554 3.25713C28.7403 3.34272 28.4409 3.48905 28.3016 3.56323V3.69178C28.5399 3.57665 28.8034 3.45952 29.0538 3.38199C29.0867 3.43904 29.1182 3.5112 29.131 3.57699C28.8645 3.62834 28.5557 3.74078 28.303 3.83878V3.95726C28.5691 3.86463 28.9293 3.76998 29.1639 3.73205C29.182 3.80824 29.1833 3.9049 29.184 3.97472C28.8884 4.00202 28.5947 4.04674 28.3043 4.10863V4.24356C28.5604 4.20899 28.9853 4.17777 29.1702 4.18482C29.1551 4.27815 29.1305 4.36969 29.0967 4.45803C28.8327 4.43501 28.5677 4.42537 28.3026 4.42916C28.3016 4.42916 28.3016 4.6094 28.3016 4.61041C28.5356 4.62383 28.7906 4.67988 28.9961 4.71882C28.9619 4.80359 28.9202 4.88513 28.8715 4.96249C28.7111 4.90878 28.4768 4.83461 28.3016 4.80675V5.1632C28.4141 5.21287 28.5758 5.29409 28.6309 5.32967C28.5839 5.3983 28.53 5.46196 28.4701 5.51964C28.3959 5.46929 28.3013 5.41391 28.3013 5.41391L28.3016 5.86736C28.4892 5.6841 28.6735 5.49111 28.8192 5.28637C29.182 4.76312 29.4693 4.08447 29.2082 3.42931C29.0504 3.07052 28.6678 2.84464 28.302 2.79597M34.3783 3.79817C34.4541 3.92638 34.5266 4.05795 34.587 4.19221L34.8757 4.32612C35.0811 4.66008 35.2445 5.01317 35.3335 5.39579C35.1744 5.29543 35.012 5.19105 34.8495 5.10177C34.8747 5.27563 34.8811 5.43271 34.8847 5.61597C35.0683 5.74384 35.259 5.87877 35.4359 6.03719C35.4512 6.35017 35.4328 6.6639 35.3808 6.97293C35.1962 6.79252 34.9974 6.62719 34.7864 6.47854C34.7367 6.75276 34.6377 7.06255 34.5229 7.34012C34.744 7.51992 34.9514 7.71603 35.1432 7.9268C35.0606 8.16762 34.9577 8.40095 34.8354 8.62425C34.6391 8.41247 34.4239 8.19061 34.2091 8.00366C34.0775 8.26042 33.8107 8.67426 33.5758 8.99345C33.7858 9.21355 33.9888 9.44033 34.1843 9.67344C34.0416 9.86973 33.8875 10.0574 33.7228 10.2356C33.5237 10.0057 33.3371 9.77078 33.1294 9.54691C32.8152 9.91242 32.5518 10.198 32.1755 10.5145C32.3984 10.7834 32.7333 11.2311 32.7333 11.2311H32.9236C33.2777 10.913 33.6108 10.5723 33.9208 10.2111C34.68 9.28444 35.2798 8.29197 35.4896 7.13974C35.7171 5.93079 35.3993 4.75439 34.6005 3.88074L34.3783 3.79817V3.79817ZM31.9241 3.06414L31.9211 3.07287C32.2681 3.49946 32.5427 3.95693 32.6863 4.46541L32.6837 4.47179L32.4158 4.2694C32.4497 4.47582 32.4769 4.66713 32.484 4.88361C32.6098 4.97927 32.7481 5.10345 32.8562 5.23334C32.8743 5.58475 32.8743 5.95831 32.8135 6.30401C32.6941 6.14291 32.587 6.02846 32.399 5.84084C32.3574 6.09592 32.2628 6.497 32.147 6.76618C32.3108 6.94407 32.4793 7.16928 32.5846 7.33407C32.5232 7.54519 32.4037 7.82913 32.2769 8.0671C32.1255 7.87277 32.0191 7.71401 31.8214 7.48209C31.6215 7.85275 31.3951 8.20845 31.1438 8.54638C31.3156 8.74944 31.4724 8.96156 31.6234 9.1767C31.4801 9.37827 31.3261 9.5721 31.1622 9.75735C31.0052 9.54221 30.839 9.32774 30.6762 9.11562C30.4483 9.3801 30.2191 9.64995 29.9419 9.89295H31.2196C32.0416 8.93841 32.6383 7.8825 32.8803 6.68865C33.1321 5.4854 32.9337 4.21234 32.1591 3.30479C32.0866 3.22457 32.0114 3.12355 31.9241 3.06414M33.0143 4.7366C33.0633 4.96685 33.0851 5.15682 33.1139 5.45822C33.2093 5.5626 33.3234 5.73713 33.3234 5.73713C33.3379 6.09545 33.3103 6.45423 33.2411 6.80612L33.0478 6.56749C32.9895 6.90308 32.9012 7.23276 32.784 7.55257L32.9995 7.92647C32.9361 8.14866 32.8132 8.45677 32.6951 8.70346C32.6152 8.57323 32.5387 8.43026 32.4571 8.31513C32.2588 8.69547 32.0337 9.06122 31.7835 9.40963L32.0825 9.89295H32.1517C32.8743 8.81926 33.359 7.63581 33.409 6.28992C33.4331 5.72605 33.2566 5.23603 33.0445 4.76648L33.0143 4.7366V4.7366ZM32.4977 4.99437C32.4746 5.17427 32.4605 5.35652 32.4286 5.52836L32.3712 5.45083C32.3128 5.81031 32.2196 6.16327 32.0929 6.50472L32.1819 6.75041C32.1091 6.99811 32.0168 7.26393 31.8979 7.54183C31.8649 7.44978 31.8218 7.36164 31.7694 7.27903C31.6083 7.60326 31.4281 7.91763 31.2297 8.22048L31.708 8.22015C31.9691 7.71288 32.1755 7.17923 32.3235 6.62824C32.4497 6.11237 32.5635 5.56025 32.5007 4.99437H32.4977V4.99437ZM32.5286 6.31274C32.4276 6.83868 32.2463 7.48981 32.0936 7.95466C32.0751 7.91823 32.0579 7.88118 32.0419 7.84357C31.9708 7.98823 31.862 8.22015 31.862 8.22015H32.1077C32.3198 7.72073 32.4682 7.00079 32.5286 6.31274ZM24.91 7.81302C24.6113 7.94929 24.3126 8.0624 23.9988 8.16309V8.21914H25.1379L24.91 7.81302ZM35.023 6.38893C34.9049 6.47384 34.7542 6.60776 34.5719 6.7202H35.2412C35.2412 6.7202 35.0959 6.50372 35.023 6.38893ZM39.0755 10.8042C39.0755 10.5642 39.2668 10.3729 39.5088 10.3729C39.7504 10.3729 39.9417 10.5642 39.9417 10.8042C39.9417 11.0438 39.7504 11.2348 39.5088 11.2348C39.4519 11.2353 39.3956 11.2246 39.3429 11.2032C39.2903 11.1818 39.2425 11.1501 39.2021 11.11C39.1618 11.07 39.1299 11.0223 39.1081 10.9698C39.0864 10.9173 39.0753 10.861 39.0755 10.8042M39.8756 10.8042C39.8756 10.6008 39.7065 10.4397 39.5088 10.4397C39.3111 10.4397 39.1419 10.6008 39.1419 10.8042C39.1419 11.0069 39.3111 11.1687 39.5088 11.1687C39.7065 11.1687 39.8756 11.0069 39.8756 10.8042ZM39.7142 11.0375H39.6346L39.4933 10.8196H39.4135V11.0375H39.3477V10.5652H39.5531C39.638 10.5652 39.7209 10.5887 39.7209 10.6897C39.7209 10.7827 39.6558 10.8173 39.5715 10.8196L39.7142 11.0375V11.0375ZM34.8022 6.10465C34.8606 6.10465 34.9633 6.11572 34.9633 6.04054C34.9633 5.99221 34.8995 5.98281 34.8485 5.98281H34.7223V6.10465H34.8022V6.10465ZM13.3699 5.08029C13.6824 5.07962 13.809 4.90644 13.8083 4.4832V2.8292C13.8076 2.75905 13.821 2.53954 13.6989 2.43013C13.6079 2.34857 13.4723 2.32507 13.3528 2.32306V2.17874L14.8457 2.10826C14.8457 2.10826 14.8464 4.03513 14.8457 4.48824C14.8447 5.04606 15.0857 5.07962 15.2891 5.07929V5.23636H13.3699V5.08029V5.08029ZM14.2946 1.74208C14.6172 1.74208 14.8779 1.48834 14.8779 1.17553C14.8779 0.863389 14.6172 0.609985 14.2946 0.609985C13.9727 0.609985 13.7113 0.863389 13.7113 1.17553C13.7113 1.48834 13.9727 1.74208 14.2946 1.74208ZM8.84694 2.20156C9.14431 2.19116 10.3466 2.07939 10.3466 2.07939L10.3526 2.57244C10.751 2.29655 11.1746 2.00219 11.6757 2.09449C12.4167 2.2311 12.5601 2.83625 12.5591 3.2427C12.5591 3.2427 12.5584 4.48354 12.5591 4.63759C12.5601 4.82521 12.6467 5.08097 12.9826 5.08164C12.982 5.08097 12.983 5.23603 12.983 5.23603H11.0675V5.07996C11.245 5.08096 11.5008 5.01484 11.5018 4.61477C11.5025 4.38889 11.5011 3.55249 11.5018 3.25948C11.5025 2.96647 11.3733 2.77919 11.1679 2.69864C10.8564 2.57714 10.555 2.75603 10.3563 2.95774L10.3566 4.6094C10.3566 4.79803 10.407 5.08096 10.7785 5.08029L10.7778 5.23636H8.88286V5.08029C9.09531 5.08096 9.30542 4.97524 9.30676 4.59698V2.83792C9.30777 2.49088 9.22453 2.3432 8.84728 2.34622L8.84694 2.20156M15.5704 2.32642C16.0778 1.98407 16.5987 1.44672 16.9538 1.01812H17.0673V2.1237H18.0064V2.47275H17.0623C17.0623 2.47275 17.0606 3.55819 17.0623 4.22812C17.0633 4.62752 17.2281 4.82622 17.5274 4.82588C17.6752 4.82281 17.816 4.76225 17.9198 4.65706L18.0833 4.72788C17.8352 5.13735 17.4576 5.32598 17.0045 5.32665C16.3108 5.32799 16.0154 4.86918 16.0168 4.36573C16.0174 3.93712 16.0174 2.47175 16.0174 2.47175H15.5704V2.32642V2.32642ZM7.96423 4.52717C7.95382 4.89335 8.18474 5.06519 8.47405 5.06452V5.22126H6.84757V4.76077C6.31895 5.26556 6.09676 5.32665 5.63996 5.32665C4.73711 5.32665 4.16452 4.79366 4.16452 3.96599V1.80853C4.16452 1.44404 4.0692 1.36617 3.62146 1.26078V1.11444H5.74099V1.26078C5.2711 1.36617 5.19759 1.46518 5.19759 1.84378V4.14153C5.19759 4.64632 5.41979 4.94805 5.91887 4.94805C6.28606 4.94805 6.45119 4.77252 6.84757 4.37982V1.80853C6.84757 1.43699 6.75225 1.36617 6.30452 1.26078V1.11444H8.42405V1.2591C8.00215 1.2487 7.96423 1.46451 7.96423 1.89278V4.52717V4.52717Z" fill="#275DA6"/>
</svg>
